<?xml version="1.0" standalone="no"?>
<!DOCTYPE svg PUBLIC "-//W3C//DTD SVG 20010904//EN"
 "http://www.w3.org/TR/2001/REC-SVG-20010904/DTD/svg10.dtd">
<svg version="1.0" xmlns="http://www.w3.org/2000/svg"
 width="300.000000pt" height="221.000000pt" viewBox="0 0 300.000000 221.000000"
 preserveAspectRatio="xMidYMid meet">
<metadata>
Created by potrace 1.10, written by Peter Selinger 2001-2011
</metadata>
<g transform="translate(0.000000,221.000000) scale(0.100000,-0.100000)"
fill="#008ccf" stroke="none">
<path d="M340 2201 c-51 -16 -89 -42 -123 -82 -126 -146 -17 -373 178 -372
131 0 229 98 229 228 0 90 -46 165 -127 206 -44 23 -120 32 -157 20z"/>
<path d="M2529 2196 c-56 -20 -96 -53 -126 -104 -54 -91 -32 -219 49 -287 47
-40 89 -55 155 -55 106 0 188 63 219 168 51 175 -125 340 -297 278z"/>
<path d="M376 1699 c-96 -23 -156 -95 -156 -190 0 -55 112 -641 132 -693 16
-40 64 -93 102 -114 27 -15 71 -17 314 -20 l282 -3 0 -291 c0 -248 2 -295 16
-324 46 -97 195 -81 224 24 12 46 13 731 0 786 -11 48 -36 84 -80 113 -32 22
-41 23 -256 23 -123 0 -224 2 -224 4 0 35 -117 560 -131 587 -24 49 -73 85
-129 98 -25 6 -47 10 -50 10 -3 -1 -23 -5 -44 -10z"/>
<path d="M2506 1696 c-46 -17 -89 -57 -111 -102 -9 -18 -38 -145 -65 -281 -27
-136 -52 -258 -55 -270 -5 -21 -9 -21 -228 -25 -223 -3 -224 -3 -264 -30 -77
-51 -78 -53 -81 -490 -3 -430 -2 -440 60 -478 60 -37 124 -22 165 39 23 33 23
38 23 332 l0 298 282 1 c414 1 388 -22 483 450 36 178 65 345 65 370 0 133
-147 233 -274 186z"/>
<path d="M53 1425 c-35 -15 -53 -41 -53 -77 0 -56 123 -616 147 -665 55 -117
175 -209 302 -233 29 -5 137 -10 238 -10 236 0 273 14 273 100 0 87 -36 100
-281 100 -117 0 -207 5 -230 12 -55 16 -113 69 -137 125 -11 26 -46 172 -76
323 -31 151 -64 285 -72 298 -13 20 -52 43 -72 42 -4 -1 -21 -7 -39 -15z"/>
<path d="M2865 1429 c-12 -6 -26 -19 -33 -29 -6 -11 -37 -142 -67 -292 -31
-150 -60 -286 -66 -303 -17 -51 -61 -105 -108 -133 -45 -27 -49 -27 -273 -32
-223 -5 -227 -5 -252 -29 -36 -34 -37 -101 -1 -137 l25 -25 253 3 252 3 60 30
c32 17 82 53 110 80 86 83 106 139 176 481 40 193 60 311 55 328 -7 29 -59 66
-91 65 -11 0 -29 -5 -40 -10z"/>
</g>
</svg>
